<svg xmlns="http://www.w3.org/2000/svg" viewBox="0 0 500 878"><path d="M260.3 2c-73 .5-177 35.5-132.8 212.7 20.7 82.7 71 147.8 111.8 207.2l-215-12.2c6.6 26 6 51.7 0 77.5l215-11.5-14.6 399c29-9.4 52.5-5.8 75.2 0l-13.3-399 193.6 11.5c-5.3-25.8-7-51.6 0-77.5l-193.6 12c36-64.2 86.4-121.2 104.6-215.2C428 16.6 331 2.6 263.8 2h-3.5zm-2 49.2c77-.6 156 110.2 5.8 334.2C106 164 181.3 51.8 258.3 51.2z" fill="#fff" fill-rule="evenodd" stroke="#fff" stroke-width="2.3" stroke-linecap="round" stroke-linejoin="round"/></svg>
