<svg xmlns="http://www.w3.org/2000/svg" version="1" width="225" height="225"><defs><linearGradient id="b"><stop offset="0" stop-color="#3b3bde"/><stop offset=".8" stop-color="#3c59de"/><stop offset="1" stop-color="#1d6fff" stop-opacity="0"/></linearGradient><linearGradient id="c"><stop offset="0" stop-color="#4f4f4f"/><stop offset=".9" stop-color="#444"/><stop offset="1" stop-color="#e5e5e5" stop-opacity="0"/></linearGradient><linearGradient id="a"><stop offset="0" stop-color="#000079"/><stop offset=".7" stop-color="#787fc3"/><stop offset="1" stop-color="#d0e1ff"/></linearGradient></defs><path d="M38.4 31.7a109.6 109.6 0 1 1 148.2 161.6A109.6 109.6 0 1 1 38.4 31.7z" fill="#fff" stroke="#fff" stroke-width="2.3" stroke-linecap="round" stroke-linejoin="round"/><path d="M128 31.3c5 0 9 1.6 12 4.8 3.4 3.4 5 7.4 5 12 0 4.8-1.7 8.8-5 12-3.2 3.4-7.2 5-12 5-4.5 0-8.5-1.6-11.8-5-3.2-3.2-5-7.2-5-12 0-4.5 1.7-8.5 5-11.8 3.2-3.3 7.2-5 12-5zm7.2 52.8l-23.5 81.7c-1.3 4.5-2 7.6-2 9.2 0 2.2 1 3.3 3.3 3.3 1.2 0 2.5-.5 4-1.7 3.4-3 7.5-8 12.2-15.4l4 2.3c-11.6 20.2-23.8 30.2-36.8 30.2-11 0-16.4-5-16.4-14.8 0-2.8.7-6.4 2-10.8l16-55c1.4-5.2 2.2-9.2 2.2-12 0-4.2-2.7-6.4-8-6.4-1.3 0-2.6 0-4.3.2l1.4-4.6 39-6.3h6.8z" style="text-align:start;line-height:125%" font-size="356.2" font-style="italic" font-weight="bold" font-family="AngsanaUPC"/></svg>