<svg xmlns="http://www.w3.org/2000/svg" width="15px" height="15px" viewBox="0 0 512 512"><path d="M455.5 198.2L326.8 326.8c-35.5 35.6-93 35.6-128.6 0l-43-43 43-42.7 43 43c11.7 12 31 12 42.8 0l128.6-128.5c11.8-11.8 11.8-31 0-43l-43-42.8c-11.7-11.8-31-11.8-42.8 0l-46 46c-21.2-12.6-45.4-18-69.3-16.3L284 26.6C319.5-9 377-9 412.6 26.6l43 43c35.4 35.4 35.4 93 0 128.6zM201.2 366.7l-46 46c-11.7 11.7-31 11.7-42.8 0l-43-43c-11.7-11.8-11.7-31 0-43l128.8-128.5c11.8-11.8 31-11.8 43 0l42.8 43 42.8-43-42.8-43c-35.6-35.4-93.2-35.4-128.7 0L26.7 284C-9 319.4-9 377 26.7 412.5l42.8 43c35.5 35.4 93 35.4 128.7 0l72.5-72.6c-24 1.4-48-4-69.5-16.5z" fill="#FFF"/></svg>
