<svg width="15px" height="15px" viewBox="0 0 512 512" xmlns="http://www.w3.org/2000/svg"><path d="M493.3 154.5l-22.6 22.7L335 41.4l22.5-22.7c25-25 65.5-25 90.5 0L493.3 64c25 25 25 65.5 0 90.5zM176.5 426c-6.3 6.3-6.3 16.4 0 22.7 6.2 6.2 16.3 6.2 22.6 0l249-249-22.6-22.6-249 249zM63.3 313c-6.2 6.2-6.2 16.3 0 22.5s16.4 6.3 22.6 0l249-249L312 64l-249 249zM357.5 109l-249 249c-12.4 12.4-12.4 32.7 0 45.2 12.6 12.5 32.8 12.6 45.3 0l249-249-45.3-45.2zm-203.7 362c-7.7-7.6-11.4-17.4-12.7-27.4-3.2.5-6.5 1-9.8 1-17 0-33.2-6.7-45.3-18.8C73.7 414 67 398 67 380.8c0-3 .5-6.2 1-9.2-10.5-1.4-20-6-27.5-13.4-.7-.8-1-1.7-1.6-2.5L0 512l156-39c-.8-.7-1.6-1-2.2-1.8z" fill="#FFF"/></svg>
