<svg xmlns="http://www.w3.org/2000/svg" viewBox="0 0 60.5 52.4">
  <path d="M60 48L32.4 1.6C31.8.6 31 0 30 0s-2 .6-2.6 1.6L.4 48c-.5 1-.6 2.2 0 3 .4 1 1.4 1.4 2.5 1.4h54.4c1 0 2-.5 2.6-1.4.6-.8.5-2 0-3z" fill="#fff"/>
  <path d="M60 48L32.4 1.6C31.8.6 31 0 30 0s-2 .6-2.6 1.6L.4 48c-.5 1-.6 2.2 0 3 .4 1 1.4 1.4 2.5 1.4h54.4c1 0 2-.5 2.6-1.4.6-.8.5-2 0-3zm-4.7.8h-50c-.6 0-.8-.4-.6-.8L29.5 5.2c.2-.4.6-.4 1 0L55.7 48c.2.4 0 .8-.5.8z" fill="#fff"/>
  <path d="M30.5 38c1 0 2-1 2-2.2l.8-17.5c0-1-1-2-2-2h-2c-1.2 0-2 1-2 2l1 17.5c.2 1.2 1 2 2.2 2zm.7 2h-2c-1 0-2 1-2 2.2v2c0 1 1 2 2 2h2c1.2 0 2.2-1 2.2-2v-2c0-1.2-1-2.2-2.2-2.2z"  fill="#191919"/>
</svg>